# File created by Blade
# Date/Time:  Tue Jan 27 20:12:12 2015
#---------------------------------------------------------
:version 1.10
:name HOM
:units
  mass 1.0
  length 1.000000
  angle deg
:documentation
     Acclaim Skeleton File
:root
   axis xyz
   order TX TY TZ RX RY RZ
   position 0.000000 0.000000 0.000000
   orientation 0 0 0
:bonedata
   begin
      id 1
      name Spine_dum
      direction 0.000000 1.000000 0.000000
      length 6.116652
      axis 0.0 0.0 0.0 xyz
   end
   begin
      id 2
      name LeftUpLeg_dum
      direction 1.000000 0.000000 0.000000
      length 4.711765
      axis 0.0 0.0 0.0 xyz
   end
   begin
      id 3
      name RightUpLeg_dum
      direction -1.000000 0.000000 0.000000
      length 4.711765
      axis 0.0 0.0 0.0 xyz
   end
   begin
      id 4
      name Spine
      direction 0.000000 1.000000 0.000000
      length 0.000000
      axis 0.0 0.0 0.0 xyz
      dof rx ry rz
   end
   begin
      id 5
      name Spine_dum1
      direction 0.000000 1.000000 0.000000
      length 15.225563
      axis 0.0 0.0 0.0 xyz
   end
   begin
      id 6
      name Spine_dum2
      direction 0.000000 1.000000 0.000000
      length 8.977654
      axis 0.0 0.0 0.0 xyz
   end
   begin
      id 7
      name Spine_dum3
      direction 0.000000 1.000000 0.000000
      length 8.977654
      axis 0.0 0.0 0.0 xyz
   end
   begin
      id 8
      name Head
      direction 0.000000 1.000000 0.000000
      length 4.527550
      axis 0.0 0.0 0.0 xyz
      dof rx ry rz
   end
   begin
      id 9
      name LeftShoulder
      direction 1.000000 0.000000 0.000000
      length 7.110130
      axis 0.0 0.0 -90.0 xyz
      dof rx ry rz
   end
   begin
      id 10
      name LeftArm
      direction 1.000000 0.000000 0.000000
      length 10.398341
      axis 0.0 0.0 -90.0 xyz
      dof rx ry rz
   end
   begin
      id 11
      name LeftForeArm
      direction 1.000000 0.000000 0.000000
      length 8.888997
      axis 0.0 0.0 -90.0 xyz
      dof ry rz rx
   end
   begin
      id 12
      name LeftHand
      direction 0.000000 0.000000 0.000000
      length 0.000000
      axis 0.0 0.0 -90.0 xyz
      dof rx ry rz
   end
   begin
      id 13
      name LeftHand_dum1
      direction 0.000000 0.000000 0.000000
      length 0.000000
      axis 0.0 0.0 -90.0 xyz
   end
   begin
      id 14
      name LeftHand_dum2
      direction 1.000000 0.000000 0.000000
      length 3.937000
      axis 0.0 0.0 -90.0 xyz
   end
   begin
      id 15
      name LeftHandThumb1
      direction 0.000000 0.000000 1.000000
      length 3.937000
      axis 0.0 0.0 -90.0 xyz
      dof rx rz ry
   end
   begin
      id 16
      name RightShoulder
      direction -1.000000 0.000000 0.000000
      length 7.110130
      axis 0.0 0.0 90.0 xyz
      dof rx ry rz
   end
   begin
      id 17
      name RightArm
      direction -1.000000 0.000000 0.000000
      length 10.398341
      axis 0.0 0.0 90.0 xyz
      dof rx ry rz
   end
   begin
      id 18
      name RightForeArm
      direction -1.000000 0.000000 0.000000
      length 8.888997
      axis 0.0 0.0 90.0 xyz
      dof ry rz rx
   end
   begin
      id 19
      name RightHand
      direction 0.000000 0.000000 0.000000
      length 0.000000
      axis 0.0 0.0 90.0 xyz
      dof rx ry rz
   end
   begin
      id 20
      name RightHand_dum1
      direction 0.000000 0.000000 0.000000
      length 0.000000
      axis 0.0 0.0 90.0 xyz
   end
   begin
      id 21
      name RightHand_dum2
      direction -1.000000 0.000000 0.000000
      length 3.937000
      axis 0.0 0.0 90.0 xyz
   end
   begin
      id 22
      name RightHandThumb1
      direction 0.000000 0.000000 1.000000
      length 3.937000
      axis 0.0 0.0 90.0 xyz
      dof rx rz ry
   end
   begin
      id 23
      name LeftUpLeg
      direction 0.000000 -1.000000 0.000000
      length 15.510451
      axis 0.0 0.0 0.0 xyz
      dof rx ry rz
   end
   begin
      id 24
      name LeftLeg
      direction 0.000000 -1.000000 0.000000
      length 14.858061
      axis 0.0 0.0 0.0 xyz
      dof rx ry rz
   end
   begin
      id 25
      name LeftFoot
      direction 0.000000 -0.258819 0.965926
      length 5.128852
      axis 15.0 0.0 0.0 xyz
      dof rx ry rz
   end
   begin
      id 26
      name LeftToeBase
      direction 0.000000 0.000000 1.000000
      length 2.952750
      axis 0.0 0.0 0.0 xyz
      dof rx ry rz
   end
   begin
      id 27
      name RightUpLeg
      direction 0.000000 -1.000000 0.000000
      length 15.510451
      axis 0.0 0.0 0.0 xyz
      dof rx ry rz
   end
   begin
      id 28
      name RightLeg
      direction 0.000000 -1.000000 0.000000
      length 14.858061
      axis 0.0 0.0 0.0 xyz
      dof rx ry rz
   end
   begin
      id 29
      name RightFoot
      direction 0.000000 -0.258819 0.965926
      length 5.128852
      axis 15.0 0.0 0.0 xyz
      dof rx ry rz
   end
   begin
      id 30
      name RightToeBase
      direction 0.000000 0.000000 1.000000
      length 2.952750
      axis 0.0 0.0 0.0 xyz
      dof rx ry rz
   end
:hierarchy
   begin
      root Spine_dum LeftUpLeg_dum RightUpLeg_dum
      Spine_dum Spine
      LeftUpLeg_dum LeftUpLeg
      RightUpLeg_dum RightUpLeg
      Spine Spine_dum1 Spine_dum2 Spine_dum3
      Spine_dum1 Head
      Spine_dum2 LeftShoulder
      Spine_dum3 RightShoulder
      LeftShoulder LeftArm
      LeftArm LeftForeArm
      LeftForeArm LeftHand
      LeftHand LeftHand_dum1 LeftHand_dum2
      LeftHand_dum1 LeftHandThumb1
      RightShoulder RightArm
      RightArm RightForeArm
      RightForeArm RightHand
      RightHand RightHand_dum1 RightHand_dum2
      RightHand_dum1 RightHandThumb1
      LeftUpLeg LeftLeg
      LeftLeg LeftFoot
      LeftFoot LeftToeBase
      RightUpLeg RightLeg
      RightLeg RightFoot
      RightFoot RightToeBase
   end

# File created by Blade
# Date/Time:  Tue Jan 27 20:12:02 2015
# Frame Rate: 120.000 fps
#------------------------------------------------------
:FULLY-SPECIFIED
:DEGREES
113
root 4.661784 32.256481 -2.887634 -2.203856 1.618067 1.436941
Spine 4.189483 3.050611 -1.747082
Head -14.371799 -1.799977 4.641419
LeftShoulder -15.513163 -0.450875 31.517636
LeftArm 8.846492 32.936379 -87.214711
LeftForeArm -19.498504 -0.000000 123.572888
LeftHand 8.857946 0.000000 -32.228453
LeftHandThumb1 -26.253704 0.000000 33.147579
RightShoulder -22.352376 -23.840255 -23.358943
RightArm 14.878061 -41.345235 86.237122
RightForeArm -20.534356 -0.000000 104.035957
RightHand 17.381229 -0.000000 2.792231
RightHandThumb1 -24.326973 -0.000000 -32.862282
LeftUpLeg 7.500098 -4.872560 -2.913288
LeftLeg 1.855383 -0.000000 -0.000000
LeftFoot -17.311744 12.316180 -19.776306
LeftToeBase 19.701514 -0.000000 -0.000000
RightUpLeg 7.060231 -4.359620 4.400776
RightLeg 1.252120 -0.000000 -0.000000
RightFoot -14.913277 -14.721649 15.668881
RightToeBase 9.544730 -0.000000 -0.000000
114
root 4.657833 32.255699 -2.886996 -2.212226 1.695999 1.454177
Spine 4.187263 2.975234 -1.739470
Head -14.383195 -1.754516 4.631970
LeftShoulder -15.496988 -0.474883 31.495063
LeftArm 8.996597 32.958793 -87.062323
LeftForeArm -19.428811 -0.000000 123.684379
LeftHand 8.842416 -0.000000 -31.963414
LeftHandThumb1 -26.253704 0.000000 33.147579
RightShoulder -22.299838 -23.790070 -23.366495
RightArm 14.998412 -41.446778 86.100680
RightForeArm -20.596469 0.000000 103.985963
RightHand 17.351745 0.000000 2.815410
RightHandThumb1 -24.326973 -0.000000 -32.862282
LeftUpLeg 7.490561 -4.892056 -2.916808
LeftLeg 1.863588 -0.000000 -0.000000
LeftFoot -17.317049 12.282048 -19.842289
LeftToeBase 19.824075 -0.000000 -0.000000
RightUpLeg 7.082676 -4.386428 4.393214
RightLeg 1.239839 -0.000000 -0.000000
RightFoot -14.943733 -14.763196 15.663335
RightToeBase 9.548905 -0.000000 -0.000000
115
root 4.652495 32.254962 -2.887329 -2.211446 1.771448 1.471242
Spine 4.181350 2.911912 -1.743277
Head -14.429624 -1.693420 4.685910
LeftShoulder -15.481497 -0.415255 31.454182
LeftArm 9.247252 33.001742 -86.853704
LeftForeArm -19.380221 -0.000000 123.794520
LeftHand 8.847863 -0.000000 -31.751185
LeftHandThumb1 -26.253704 0.000000 33.147579
RightShoulder -22.266620 -23.711768 -23.363916
RightArm 15.067277 -41.523698 85.992926
RightForeArm -20.628196 -0.000000 103.944060
RightHand 17.354186 -0.000000 2.873841
RightHandThumb1 -24.326973 -0.000000 -32.862282
LeftUpLeg 7.470049 -4.889452 -2.915317
LeftLeg 1.884026 -0.000000 -0.000000
LeftFoot -17.290957 12.224308 -19.822021
LeftToeBase 19.858384 -0.000000 -0.000000
RightUpLeg 7.086305 -4.426835 4.386322
RightLeg 1.235195 -0.000000 -0.000000
RightFoot -14.954412 -14.788430 15.651185
RightToeBase 9.141348 -0.000000 -0.000000
116
root 4.647976 32.254342 -2.890109 -2.211535 1.872045 1.495894
Spine 4.184806 2.823467 -1.748560
Head -14.478683 -1.657804 4.707506
LeftShoulder -15.456580 -0.441057 31.441776
LeftArm 9.395481 33.077073 -86.720542
LeftForeArm -19.170489 -0.000000 123.941611
LeftHand 9.126921 -0.000000 -31.132976
LeftHandThumb1 -26.253704 0.000000 33.147579
RightShoulder -22.239654 -23.664939 -23.360640
RightArm 15.178289 -41.576478 85.879691
RightForeArm -20.735989 -0.000000 103.908709
RightHand 17.348891 0.000000 2.839885
RightHandThumb1 -24.326973 -0.000000 -32.862282
LeftUpLeg 7.436622 -4.938662 -2.930006
LeftLeg 1.936443 -0.000000 -0.000000
LeftFoot -17.247223 12.141284 -19.807047
LeftToeBase 19.641158 -0.000000 -0.000000
RightUpLeg 7.075222 -4.517961 4.368821
RightLeg 1.258400 -0.000000 -0.000000
RightFoot -14.979692 -14.819201 15.616533
RightToeBase 8.937955 -0.000000 -0.000000
117
root 4.642410 32.253756 -2.890047 -2.219796 1.956491 1.509412
Spine 4.187956 2.767928 -1.748184
Head -14.510722 -1.622071 4.726797
LeftShoulder -15.432039 -0.493171 31.435096
LeftArm 9.527424 33.160230 -86.616997
LeftForeArm -18.752147 0.000000 124.096393
LeftHand 8.950844 0.000000 -31.235935
LeftHandThumb1 -26.253704 0.000000 33.147579
RightShoulder -22.228338 -23.621476 -23.346369
RightArm 15.253695 -41.600612 85.786129
RightForeArm -20.882415 -0.000000 103.888317
RightHand 17.366875 -0.000000 2.845622
RightHandThumb1 -24.326973 -0.000000 -32.862282
LeftUpLeg 7.426820 -4.938784 -2.919445
LeftLeg 1.932895 -0.000000 -0.000000
LeftFoot -17.235298 12.096846 -19.803306
LeftToeBase 19.827870 -0.000000 -0.000000
RightUpLeg 7.091867 -4.544078 4.367919
RightLeg 1.259510 -0.000000 -0.000000
RightFoot -15.024164 -14.855399 15.635777
RightToeBase 8.960430 -0.000000 -0.000000
